<svg version="1.1" id="Layer_1" xmlns="http://www.w3.org/2000/svg" xmlns:xlink="http://www.w3.org/1999/xlink" x="0px" y="0px"
	 width="100%" viewBox="0 0 1223 408" enable-background="new 0 0 1223 408" xml:space="preserve">
<path fill="#FEFEFF" opacity="1.000000" stroke="none" 
	d="
M840.000000,409.000000 
	C560.000061,409.000000 280.500092,409.000000 1.000113,409.000000 
	C1.000075,273.000061 1.000075,137.000153 1.000037,1.000167 
	C408.666504,1.000112 816.333008,1.000112 1223.999634,1.000056 
	C1223.999756,136.999832 1223.999756,272.999664 1223.999878,408.999756 
	C1096.166626,409.000000 968.333313,409.000000 840.000000,409.000000 
M253.710602,253.126953 
	C260.622162,255.851639 262.672455,259.300354 260.436340,267.307068 
	C258.482056,274.304626 256.084442,281.366791 252.631180,287.720184 
	C244.116821,303.385101 234.883392,318.659180 225.690872,334.518585 
	C227.234146,333.477936 228.822525,332.738220 229.983429,331.572723 
	C241.361191,320.150360 253.000305,308.962341 263.895721,297.093170 
	C273.683167,286.430939 282.477905,274.888336 288.001953,261.267548 
	C294.283691,245.778549 289.787476,234.545868 274.411591,228.209702 
	C258.454742,221.634125 241.610947,220.172348 223.440918,220.114151 
	C223.074036,220.016876 222.707169,219.919586 222.610443,219.145630 
	C230.447464,204.987488 236.399048,190.318405 235.948044,173.585541 
	C236.804016,175.424164 237.659988,177.262802 238.597626,179.276810 
	C257.253174,171.465363 272.576294,159.626770 284.204010,142.793381 
	C294.939850,127.251228 304.151917,95.654839 301.105133,87.143150 
	C290.218170,124.105896 268.369537,149.671310 229.284424,157.969147 
	C230.332672,159.457932 231.148972,160.617294 231.965271,161.776657 
	C231.307434,162.192474 230.649597,162.608292 229.775131,162.379501 
	C229.080276,161.460785 228.431122,160.502960 227.683594,159.629318 
	C218.565964,148.973343 200.543167,143.927124 190.074554,160.277451 
	C184.599472,168.828613 182.695068,178.432144 181.478683,188.204941 
	C178.441483,212.606964 168.297897,233.791107 152.725189,252.535324 
	C133.702057,275.432709 109.991356,292.464325 84.184364,306.803741 
	C78.207123,310.124939 72.062622,313.145142 65.995079,316.303802 
	C66.139465,316.770935 66.283852,317.238068 66.428238,317.705200 
	C68.179382,317.392639 69.959091,317.191559 71.677505,316.751282 
	C119.827263,304.414703 163.978592,284.526947 200.428391,248.943558 
	C201.892883,249.003815 203.357376,249.064087 205.773972,248.996292 
	C213.487427,249.124283 221.200882,249.252274 229.162613,250.050415 
	C231.437485,250.055878 233.712341,250.061356 236.811996,250.009689 
	C238.176392,250.150787 239.540787,250.291885 241.061127,251.007019 
	C242.036179,251.028732 243.011215,251.050446 244.727783,251.033218 
	C245.455444,251.154861 246.183105,251.276520 247.012466,251.921158 
	C247.672958,251.958054 248.333450,251.994949 249.651840,252.018234 
	C250.074173,252.126862 250.496490,252.235504 251.011688,252.869583 
	C251.669922,252.937103 252.328140,253.004623 253.710602,253.126953 
M416.230652,227.125427 
	C416.559265,227.889954 416.868408,228.663574 417.219543,229.417603 
	C420.072052,235.542679 424.723053,239.137192 431.620972,239.172577 
	C438.496002,239.207840 443.315094,235.840408 446.092377,229.604813 
	C447.172424,227.179901 448.150116,224.694489 448.966797,222.169479 
	C457.003174,197.322937 464.974365,172.455307 473.009552,147.608383 
	C477.264526,134.450806 478.729187,134.290741 463.024933,134.301193 
	C458.544434,134.304169 456.090485,135.708817 454.704651,140.243317 
	C447.947113,162.354263 440.886261,184.372559 433.922119,206.420273 
	C433.339661,208.264343 432.678741,210.083618 431.764557,212.763916 
	C430.984772,210.911911 430.517975,210.050751 430.250519,209.131577 
	C424.163269,188.212067 418.143372,167.272842 412.011597,146.366440 
	C408.154541,133.215820 410.144531,134.588974 396.414551,134.283188 
	C391.074097,134.164246 388.385406,135.935623 386.783630,141.255585 
	C380.118073,163.393677 373.011475,185.399063 366.047607,207.447098 
	C365.592407,208.888275 364.977661,210.279037 364.035248,212.744781 
	C363.104553,209.881470 362.507874,208.197479 362.008179,206.485184 
	C356.137848,186.368591 350.352539,166.226868 344.396606,146.135696 
	C340.704712,133.681671 343.433594,134.296051 328.129761,134.391129 
	C322.242401,134.427704 321.318329,135.716980 322.983643,141.310120 
	C328.536072,159.958511 334.075897,178.610962 339.722687,197.230911 
	C343.050751,208.205109 346.283386,219.223312 350.122192,230.021515 
	C352.177521,235.802994 357.089264,238.867615 363.300385,239.153870 
	C369.656128,239.446793 374.743988,236.890793 377.716644,231.166077 
	C379.467590,227.794067 380.769104,224.152969 381.953339,220.528534 
	C387.424103,203.784775 392.782745,187.004379 398.603912,168.925446 
	C404.649902,188.921173 410.315704,207.659576 416.230652,227.125427 
M852.621399,147.604736 
	C852.619812,136.145721 852.619812,136.145721 842.305054,136.150238 
	C834.585754,136.153625 834.281433,136.452606 834.278870,144.375549 
	C834.271790,166.192505 834.276245,188.009476 834.276123,209.826431 
	C834.276123,211.498688 834.276062,213.170944 834.276062,214.843201 
	C832.173828,213.219193 831.136597,211.559067 830.178223,209.854599 
	C817.945496,188.099030 805.637939,166.384781 793.557373,144.544983 
	C790.335571,138.720322 786.266357,135.876678 779.249084,135.994049 
	C766.082031,136.214279 760.416260,134.138092 760.425415,155.047668 
	C760.436096,179.362747 760.492249,203.678085 760.400757,227.992828 
	C760.349792,241.540207 760.971680,239.197266 771.818298,239.315430 
	C778.363953,239.386749 778.849548,238.850006 778.854309,232.157104 
	C778.870239,209.840515 778.860474,187.523941 778.860535,165.207352 
	C778.860535,163.653961 778.860535,162.100571 778.860535,160.547180 
	C780.880554,162.228119 781.980408,164.016647 783.011902,165.843765 
	C795.280090,187.574249 807.615662,209.267349 819.745728,231.074677 
	C822.893555,236.733810 826.963989,239.520218 833.713318,239.443741 
	C850.377014,239.254883 852.590637,237.323639 852.612366,220.522293 
	C852.643494,196.540344 852.620850,172.558304 852.621399,147.604736 
M1106.400024,229.022949 
	C1111.352783,236.351120 1118.788330,238.931168 1127.072876,239.121399 
	C1139.548462,239.407898 1152.038696,239.389694 1164.516602,239.167068 
	C1179.975464,238.891266 1189.575928,231.426010 1190.804810,216.122101 
	C1192.224243,198.445450 1192.568970,180.526001 1191.401001,162.842728 
	C1190.267944,145.688873 1182.542480,137.738617 1167.424683,136.632187 
	C1153.360596,135.602875 1139.111938,135.678741 1125.036377,136.627792 
	C1111.507812,137.539932 1103.645996,144.480270 1102.130981,158.151321 
	C1100.344360,174.273865 1100.231812,190.667175 1100.654297,206.910278 
	C1100.841797,214.117844 1104.122192,221.244965 1106.400024,229.022949 
M663.125488,226.423553 
	C663.544189,227.142624 663.955811,227.865936 664.382629,228.580185 
	C672.214478,241.684921 667.678894,239.039124 683.114441,239.300430 
	C690.166077,239.419815 691.187927,237.573212 687.582214,231.366180 
	C678.751160,216.163849 669.846741,201.004150 660.931946,185.759232 
	C668.684509,172.200287 676.725830,158.204086 684.695435,144.167221 
	C688.310547,137.799820 687.364868,136.169342 680.272888,136.156296 
	C678.439880,136.152908 676.579834,136.357315 674.779175,136.115997 
	C670.387878,135.527573 667.811951,137.246552 665.707336,141.235443 
	C660.348572,151.391403 654.632812,161.368378 648.745605,171.229370 
	C647.315735,173.624481 644.934875,176.535858 642.533020,177.044006 
	C637.318298,178.147202 631.807800,177.852615 626.081665,178.146805 
	C626.081665,167.053528 626.026794,156.910217 626.096008,146.767761 
	C626.177124,134.885071 626.108398,136.144730 615.561951,136.154694 
	C607.802490,136.162033 607.441528,136.499466 607.438721,144.312714 
	C607.428955,171.641510 607.451477,198.970322 607.427795,226.299103 
	C607.414734,241.433044 606.749573,239.055725 620.676697,239.371918 
	C624.948364,239.468903 626.163940,237.480179 626.120605,233.594284 
	C626.003662,223.097321 626.081238,212.598221 626.081604,202.099960 
	C626.081726,200.340363 626.081665,198.580765 626.081665,196.486053 
	C630.794373,196.486053 634.780029,196.559586 638.761841,196.467789 
	C643.953369,196.348083 647.508484,198.497070 649.994202,203.177795 
	C654.052246,210.819519 658.512817,218.247498 663.125488,226.423553 
M902.158691,238.614929 
	C919.313477,238.789597 936.468018,238.986465 953.623108,239.119476 
	C956.901733,239.144913 957.820251,236.899506 957.847595,234.099075 
	C957.886658,230.099869 957.830872,226.099762 957.866333,222.100510 
	C957.899719,218.338913 956.166199,216.694794 952.334412,216.823608 
	C947.174133,216.997055 942.002991,216.915771 936.837585,216.853561 
	C926.680847,216.731247 916.521423,216.655548 906.369934,216.340775 
	C901.493103,216.189575 898.658875,213.100510 898.105591,208.485306 
	C897.641418,204.614410 898.010254,200.643646 898.010254,196.454559 
	C913.856506,196.454559 929.180298,196.497025 944.503723,196.442017 
	C958.411926,196.392090 957.039124,198.224808 957.086426,183.383911 
	C957.087463,183.050705 957.071289,182.717484 957.070923,182.384262 
	C957.067810,179.265015 955.519165,177.941895 952.396301,177.955261 
	C931.398987,178.045242 910.400696,177.991791 889.404114,178.157761 
	C884.094727,178.199722 879.202942,182.328934 879.294006,187.357498 
	C879.489075,198.136551 879.578918,209.040634 881.303711,219.634338 
	C883.040283,230.300308 890.271545,236.798996 902.158691,238.614929 
M518.192261,236.565338 
	C523.072083,237.426636 527.934082,238.884827 532.835266,239.031387 
	C544.983582,239.394745 557.149841,239.182999 569.308838,239.156693 
	C582.090027,239.129028 581.169373,240.571533 581.165283,227.391037 
	C581.162048,216.875961 581.163635,216.950089 570.578796,216.857101 
	C557.101624,216.738724 543.624390,216.540298 530.149658,216.260941 
	C525.281616,216.160034 522.535095,213.303909 521.645630,208.657700 
	C521.273865,206.716003 521.294739,204.702484 521.006287,202.740860 
	C520.323608,198.097473 521.930908,196.314697 526.918945,196.536621 
	C536.061829,196.943375 545.235657,196.653839 554.396606,196.652023 
	C561.225647,196.650681 568.054749,196.660522 574.883728,196.634476 
	C577.777344,196.623444 580.717468,195.863800 580.595032,192.488953 
	C580.422791,187.738068 582.845154,182.434052 578.393921,178.380707 
	C577.887024,177.919113 576.799622,177.990021 575.981445,177.990631 
	C554.828186,178.006638 533.674072,177.957657 512.522156,178.143219 
	C507.184387,178.190063 502.987213,182.478500 502.891876,187.734558 
	C502.747223,195.707779 502.469940,203.733749 503.181335,211.653580 
	C504.099365,221.873398 507.016663,231.376511 518.192261,236.565338 
M1038.195190,171.504959 
	C1038.195190,166.065659 1038.195190,160.626358 1038.195190,154.801407 
	C1046.568115,154.801407 1054.212524,154.786621 1061.856934,154.804688 
	C1075.065674,154.835876 1074.045898,155.755142 1074.008057,142.701599 
	C1073.990601,136.703995 1073.434937,136.166794 1067.391846,136.164154 
	C1043.397705,136.153702 1019.403625,136.160202 995.409485,136.159225 
	C983.451294,136.158737 983.910095,134.818954 983.994324,147.923553 
	C984.034241,154.136185 984.654968,154.779907 990.884460,154.794754 
	C1000.340881,154.817291 1009.797485,154.800629 1019.837158,154.800629 
	C1019.837158,157.099182 1019.837097,158.881088 1019.837097,160.663010 
	C1019.837097,182.990891 1019.844238,205.318756 1019.834473,227.646637 
	C1019.828796,240.563324 1018.956604,239.212006 1031.353638,239.231934 
	C1037.845215,239.242386 1038.181519,238.921906 1038.187866,232.488297 
	C1038.207642,212.493195 1038.195190,192.498077 1038.195190,171.504959 
M616.855408,327.730286 
	C618.228882,332.182190 621.108521,333.608582 625.811340,333.353699 
	C633.778137,332.921967 641.785645,333.187256 649.775085,333.263458 
	C652.173035,333.286285 653.876953,333.075653 654.294373,330.045685 
	C654.440125,328.987915 656.299011,327.715424 657.602661,327.348938 
	C662.295471,326.029694 662.811340,329.884796 663.618286,332.936340 
	C669.194092,332.936340 674.452820,332.936340 680.247131,332.936340 
	C676.821777,321.224609 673.200684,310.009033 670.357788,298.599609 
	C669.065735,293.414001 666.891724,291.833130 661.575195,292.011414 
	C648.506775,292.449707 648.542175,292.166595 644.842529,305.011932 
	C642.299438,313.841492 639.609131,322.628601 636.730347,332.287933 
	C634.234253,328.335480 632.396851,325.183289 630.314880,322.201843 
	C628.471863,319.562744 627.819519,317.666077 630.087524,314.393707 
	C636.031616,305.817017 632.045288,294.731018 621.841309,292.952209 
	C613.869324,291.562469 605.461365,292.673828 597.274963,292.673828 
	C597.274963,306.195251 597.274963,319.455688 597.274963,332.879150 
	C602.265015,332.879150 606.970703,332.879150 612.153931,332.879150 
	C612.153931,328.668549 612.153931,324.793976 612.153931,320.919403 
	C612.473572,320.833466 612.793152,320.747498 613.112793,320.661530 
	C614.241211,322.796417 615.369629,324.931305 616.855408,327.730286 
M818.067993,320.663544 
	C818.067993,324.752991 818.067993,328.842438 818.067993,332.928101 
	C823.463684,332.928101 828.058594,332.928101 832.802490,332.928101 
	C832.802490,319.264771 832.802490,305.911682 832.802490,292.156769 
	C826.762756,292.156769 821.122498,292.298889 815.494446,292.097473 
	C812.634033,291.995056 811.379883,293.022491 810.644958,295.770264 
	C809.128113,301.441498 807.233093,307.011505 805.493591,312.623169 
	C802.799866,306.954254 801.158630,301.277863 799.240662,295.696564 
	C798.783081,294.365143 797.447388,292.395050 796.437744,292.346832 
	C790.025757,292.040649 783.591858,292.191193 777.155090,292.191193 
	C777.155090,306.195160 777.155090,319.448914 777.155090,332.864868 
	C782.170532,332.864868 786.873047,332.864868 791.997314,332.864868 
	C791.997314,326.317322 791.997314,320.125671 791.997314,313.934052 
	C794.044861,317.711731 795.264954,321.609955 796.466736,325.513733 
	C798.905945,333.437042 798.902588,333.278046 807.279907,333.317627 
	C810.394836,333.332336 811.677490,332.226807 812.446777,329.329224 
	C813.832153,324.110901 815.617371,318.998688 817.235535,313.842163 
	C817.513062,313.889893 817.790527,313.937622 818.068054,313.985352 
	C818.068054,315.901276 818.068054,317.817230 818.067993,320.663544 
M715.828064,219.499023 
	C715.828064,222.330490 715.835754,225.161987 715.826721,227.993423 
	C715.786316,240.712769 715.182739,239.223679 727.138245,239.264297 
	C733.903870,239.287292 734.164001,239.019424 734.166870,232.209045 
	C734.178772,204.060989 734.143311,175.912888 734.184570,147.764893 
	C734.203918,134.584122 734.547119,136.209747 722.610718,136.175537 
	C716.352173,136.157593 715.841553,136.665375 715.836731,143.049210 
	C715.817871,168.199234 715.828369,193.349289 715.828064,219.499023 
M182.948883,169.769135 
	C184.365128,166.329285 185.781387,162.889435 187.739777,158.132812 
	C175.348114,159.447525 164.132019,160.648087 152.913498,161.825439 
	C133.221771,163.892029 121.448875,174.724686 117.387794,194.005402 
	C114.858177,206.015182 112.441719,218.048950 110.037498,230.084534 
	C109.913864,230.703476 110.384972,231.441223 111.031242,233.712128 
	C112.357414,230.971466 112.993721,229.584778 113.690125,228.228928 
	C118.092796,219.657181 122.147522,210.881012 127.005058,202.574646 
	C134.284027,190.127640 145.187973,182.466827 159.580795,180.088089 
	C164.668274,179.247253 169.740311,177.795639 174.840744,177.694031 
	C180.081528,177.589615 182.279633,175.322250 182.948883,169.769135 
M206.053909,142.902405 
	C207.715286,142.973831 209.381485,143.164032 211.037231,143.096893 
	C220.049850,142.731476 226.550430,138.250809 230.313736,130.263168 
	C234.181793,122.053177 233.264023,114.003296 227.505219,106.880569 
	C221.934982,99.991051 214.690933,97.038704 205.823257,98.857697 
	C195.667389,100.940948 188.421341,109.390228 188.003448,119.531723 
	C187.532379,130.963745 193.599670,139.138855 206.053909,142.902405 
M878.993835,140.865860 
	C878.992554,142.862015 878.988586,144.858154 878.990601,146.854309 
	C878.998291,154.319672 879.117310,154.452637 886.465210,154.474899 
	C906.093323,154.534348 925.721375,154.593307 945.349487,154.630936 
	C958.767822,154.656662 957.981445,156.452591 957.846008,140.874084 
	C957.815796,137.404068 956.086060,135.899307 952.505371,135.912247 
	C929.716980,135.994644 906.928162,135.977600 884.139648,135.923874 
	C881.213928,135.916977 879.270142,136.760956 878.993835,140.865860 
M557.500000,135.943268 
	C542.868042,135.943283 528.236023,135.943222 513.604065,135.943283 
	C502.181244,135.943314 502.181274,135.943390 502.305084,147.475082 
	C502.373138,153.814117 503.178741,154.649734 509.516998,154.665924 
	C529.137085,154.716064 548.757202,154.741730 568.377319,154.773361 
	C582.463928,154.796051 581.145386,156.109802 581.162048,141.323441 
	C581.162476,140.991089 581.138062,140.658737 581.137024,140.326355 
	C581.127625,137.208359 579.572449,135.875931 576.456848,135.923477 
	C570.472534,136.014847 564.485657,135.945740 557.500000,135.943268 
M881.108093,333.539520 
	C888.404053,333.392487 895.780090,333.868408 902.976013,332.943146 
	C912.299133,331.744354 918.390869,324.370239 918.962402,315.212555 
	C919.668213,303.902954 914.988708,295.273102 905.160950,293.331726 
	C896.542175,291.629181 887.498169,292.079102 878.134460,291.549561 
	C878.134460,305.558167 878.098572,318.332275 878.223816,331.104767 
	C878.231323,331.867065 879.528992,332.616669 881.108093,333.539520 
M714.636047,333.541687 
	C717.717957,333.541687 720.799805,333.541687 724.881714,333.541687 
	C721.908020,328.727631 719.659851,324.889130 717.203979,321.188446 
	C715.772949,319.032074 715.471497,317.513184 717.233215,315.067932 
	C723.854187,305.878326 718.892151,293.624512 707.769470,292.375183 
	C700.254089,291.531036 692.567261,292.214203 684.349365,292.214203 
	C684.349365,305.520477 684.313721,318.446411 684.445251,331.370605 
	C684.452515,332.083954 685.820435,333.356812 686.600952,333.393494 
	C690.862732,333.593994 695.138916,333.488983 699.909790,333.488983 
	C699.909790,329.079895 699.909790,325.380066 699.909790,321.680237 
	C702.016479,323.553589 703.482788,325.562439 704.287964,327.808319 
	C705.934814,332.402313 708.844421,334.487061 714.636047,333.541687 
M349.112213,327.371246 
	C349.112213,329.149902 349.112213,330.928558 349.112213,332.969421 
	C354.479156,332.969421 359.227386,332.969421 364.613647,332.969421 
	C364.613647,329.071381 364.613647,325.389893 364.613647,321.708435 
	C367.281189,324.501221 368.754547,327.592865 370.533234,330.497528 
	C371.221832,331.622070 372.561340,333.031097 373.674072,333.094940 
	C378.594666,333.377106 383.540619,333.217010 389.406616,333.217010 
	C385.940399,327.560486 382.944641,322.671661 380.025330,317.907593 
	C388.145782,307.130707 385.803925,295.375610 374.425659,293.125946 
	C366.378937,291.534973 357.764008,292.817932 349.112305,292.817932 
	C349.112305,304.121735 349.112305,315.261841 349.112213,327.371246 
M470.988312,307.484375 
	C471.018555,310.479065 470.895386,313.484680 471.107727,316.466400 
	C471.759033,325.612518 478.598328,332.865448 487.438629,333.953674 
	C497.659637,335.211914 507.410980,330.492981 509.196045,321.499847 
	C511.066223,312.077789 510.732758,302.218323 511.366699,292.484680 
	C505.272766,292.484680 500.536865,292.484680 495.300201,292.484680 
	C495.300201,294.436707 495.307190,296.067352 495.298950,297.697937 
	C495.270355,303.354645 495.511139,309.034973 495.028687,314.652985 
	C494.892822,316.235077 492.510010,318.924377 491.370636,318.818390 
	C489.619232,318.655457 487.496429,316.818909 486.568695,315.124481 
	C485.708374,313.553162 486.136871,311.237640 486.122925,309.248932 
	C486.083862,303.668152 486.109314,298.086914 486.109314,292.411865 
	C480.729828,292.411865 476.145355,292.411865 470.988312,292.411865 
	C470.988312,297.271057 470.988312,301.881683 470.988312,307.484375 
M861.473389,333.552734 
	C865.216614,333.552734 868.959839,333.552734 872.548340,333.552734 
	C872.548340,328.999481 872.548340,325.279816 872.548340,320.665771 
	C866.791687,320.665771 861.463623,320.665771 856.135559,320.665771 
	C856.149841,320.147522 856.164062,319.629272 856.178284,319.110992 
	C857.908508,319.023834 859.638306,318.870544 861.368896,318.860382 
	C871.541626,318.800629 871.545288,318.811554 870.563721,308.254333 
	C870.536926,307.966217 870.233032,307.703918 869.907288,307.192352 
	C865.400879,306.994171 860.731323,306.788818 856.061768,306.583435 
	C856.096008,305.862915 856.130249,305.142395 856.164490,304.421875 
	C861.301636,304.421875 866.438782,304.421875 871.600525,304.421875 
	C871.600525,299.879395 871.600525,296.290283 871.600525,292.439575 
	C861.092285,292.439575 850.881104,292.439575 840.386597,292.439575 
	C840.386597,306.115784 840.386597,319.493347 840.386597,333.551910 
	C847.254517,333.551910 853.868835,333.551910 861.473389,333.552734 
M559.102905,322.459473 
	C559.102905,325.917969 559.102905,329.376434 559.102905,333.173035 
	C570.284668,333.173035 580.974304,333.173035 591.574951,333.173035 
	C591.574951,329.059540 591.574951,325.332581 591.574951,320.722717 
	C585.829346,320.722717 580.469788,320.722717 575.110168,320.722717 
	C575.128235,320.198608 575.146301,319.674530 575.164429,319.150421 
	C576.876099,319.050140 578.587280,318.873718 580.299500,318.862122 
	C590.303284,318.794250 590.309448,318.806885 589.691223,308.807587 
	C589.662903,308.348358 589.351562,307.906616 589.088074,307.246063 
	C584.434753,307.015106 579.744141,306.782288 575.053528,306.549469 
	C575.090942,305.857483 575.128357,305.165527 575.165833,304.473572 
	C579.213013,304.473572 583.273376,304.655914 587.299500,304.364563 
	C588.537659,304.274933 590.580261,303.011261 590.705994,302.076782 
	C591.133545,298.899323 590.869446,295.628723 590.869446,292.593018 
	C579.775391,292.593018 569.565491,292.593018 559.102966,292.593018 
	C559.102966,302.518829 559.102966,311.994415 559.102905,322.459473 
M740.510620,333.544037 
	C746.783875,333.544037 753.057129,333.544037 759.450378,333.544037 
	C759.450378,329.102325 759.450378,325.392731 759.450378,320.826752 
	C753.526062,320.826752 747.960938,320.826752 742.395813,320.826752 
	C742.405334,320.234711 742.414917,319.642700 742.424438,319.050659 
	C747.193787,319.050659 751.963196,319.050659 756.861633,319.050659 
	C756.861633,314.579742 756.861633,311.025360 756.861633,306.537354 
	C751.811218,306.537354 747.090881,306.537354 742.370544,306.537354 
	C742.387085,305.847717 742.403625,305.158081 742.420105,304.468445 
	C746.584595,304.468445 750.752502,304.365845 754.912354,304.504822 
	C757.653259,304.596405 758.908630,303.658264 758.734192,300.780304 
	C758.567566,298.030731 758.698303,295.263123 758.698303,292.533112 
	C747.709167,292.533112 737.495789,292.533112 727.309937,292.533112 
	C727.309937,306.311493 727.309937,319.700470 727.309937,333.543243 
	C731.586121,333.543243 735.551331,333.543243 740.510620,333.544037 
M1105.273926,333.237030 
	C1106.496460,333.072418 1107.719116,332.907806 1109.442627,332.675720 
	C1105.393188,318.873138 1101.488403,305.564026 1097.554932,292.156982 
	C1091.531006,292.156982 1086.042725,292.001953 1080.576172,292.276306 
	C1079.354858,292.337616 1077.486206,293.683990 1077.139526,294.814240 
	C1073.297363,307.339203 1069.696533,319.938202 1065.910278,332.929596 
	C1071.785767,332.929596 1077.174316,332.929596 1082.547974,332.929596 
	C1082.986572,331.568512 1083.013184,330.030273 1083.765625,329.474579 
	C1085.052612,328.523956 1086.778809,327.788025 1088.349854,327.728058 
	C1089.503662,327.683960 1091.679199,328.803528 1091.722900,329.508270 
	C1091.970703,333.512115 1094.543335,333.358887 1097.341187,333.255341 
	C1099.668457,333.169189 1102.001343,333.237854 1105.273926,333.237030 
M991.805359,311.213379 
	C989.712341,318.304932 987.619324,325.396484 985.308289,333.226685 
	C990.874207,333.226685 995.494629,333.319031 1000.105103,333.146606 
	C1000.997986,333.113220 1002.550476,332.113647 1002.615417,331.444885 
	C1003.210022,325.321472 1007.306519,327.485229 1009.232849,327.554016 
	C1011.546509,330.017029 1012.889832,332.760498 1014.590942,333.003967 
	C1019.122009,333.652313 1023.807068,333.224426 1028.322876,333.224426 
	C1028.504395,332.448944 1028.707275,332.101532 1028.630127,331.835266 
	C1026.182861,323.389191 1023.764404,314.934021 1021.216614,306.518097 
	C1019.785522,301.790985 1019.458740,295.305450 1016.212402,292.949097 
	C1012.908569,290.551056 1006.618652,292.436249 1001.661621,292.086304 
	C998.446594,291.859375 996.857056,292.905334 996.092712,296.075470 
	C994.927490,300.908752 993.372131,305.647919 991.805359,311.213379 
M418.318176,306.969086 
	C414.554047,306.969086 410.789917,306.969086 407.025787,306.969086 
	C407.030426,306.133850 407.035065,305.298645 407.039734,304.463409 
	C412.272125,304.463409 417.504547,304.463409 422.849426,304.463409 
	C422.849426,299.839478 422.849426,296.265472 422.849426,292.462524 
	C412.481049,292.462524 402.423035,292.462524 392.116150,292.462524 
	C392.116150,306.178253 392.116150,319.580872 392.116150,333.496277 
	C402.340973,333.496277 412.300354,333.541931 422.257355,333.406860 
	C423.027527,333.396423 424.241577,332.241760 424.469482,331.406189 
	C426.528259,323.858154 424.500641,321.249237 416.791260,321.248383 
	C414.459381,321.248138 412.122894,321.328003 409.797943,321.199951 
	C408.896545,321.150330 408.021271,320.626740 407.134094,320.319061 
	C407.197327,319.826141 407.260559,319.333191 407.323822,318.840271 
	C412.139191,318.840271 416.954559,318.840271 422.041962,318.840271 
	C422.041962,315.314209 422.314575,312.619293 421.915527,310.027832 
	C421.741974,308.900848 420.188324,307.986389 418.318176,306.969086 
M517.845032,312.500061 
	C517.845032,319.259766 517.845032,326.019440 517.845032,332.841064 
	C523.225647,332.841064 527.923584,332.841064 533.087585,332.841064 
	C533.087585,328.536346 533.087585,324.613678 533.087585,320.213196 
	C535.503967,320.213196 537.454895,320.253357 539.403625,320.206238 
	C547.661255,320.006653 553.284973,315.020508 553.898987,307.386414 
	C554.510254,299.784790 549.737915,293.231415 541.676880,292.430634 
	C533.990723,291.667175 526.169128,292.266144 517.844849,292.266144 
	C517.844849,298.951813 517.844849,305.226044 517.845032,312.500061 
M966.730469,291.303772 
	C962.296875,293.006531 957.238831,293.863525 953.555603,296.582733 
	C945.089905,302.832733 943.475647,314.867432 948.968323,324.010925 
	C954.441895,333.122742 966.487427,336.670380 977.109802,332.299438 
	C983.833984,329.532532 984.247620,328.292450 980.383606,322.257690 
	C979.240540,320.472412 978.016968,318.738678 976.807434,316.947388 
	C972.139893,319.074249 967.453064,321.557465 963.847412,316.822906 
	C962.544861,315.112549 962.459778,311.041992 963.619751,309.155701 
	C967.216736,303.306305 972.296814,306.858429 977.158020,308.503906 
	C979.440002,304.863800 981.612366,301.398621 983.724304,298.029724 
	C978.613281,293.281616 975.663330,292.088287 966.730469,291.303772 
M461.837616,305.523773 
	C467.200775,296.846283 466.033752,294.300537 455.658997,292.048431 
	C454.683594,291.836700 453.715637,291.568268 452.729614,291.431366 
	C443.317719,290.124634 433.547882,295.996643 430.015259,305.060730 
	C426.547028,313.959717 429.687683,324.779938 437.264435,330.035370 
	C445.312073,335.617432 457.794495,335.504150 464.332123,329.595947 
	C465.141937,328.864044 465.741852,326.813232 465.299408,325.975525 
	C463.631653,322.817749 461.492950,319.908722 459.864380,317.417175 
	C456.578247,318.183990 454.045166,319.150452 451.468109,319.287079 
	C447.749146,319.484222 445.577759,317.179260 445.097595,313.596252 
	C444.607208,309.936584 446.551636,307.242554 449.872162,306.393524 
	C451.908905,305.872803 454.501129,306.497131 456.549805,307.330292 
	C458.733185,308.218262 460.273193,308.648193 461.837616,305.523773 
M1064.092896,328.428650 
	C1064.092896,325.675873 1064.092896,322.923126 1064.092896,319.830200 
	C1059.797363,319.830200 1056.309692,319.658325 1052.847168,319.879944 
	C1049.574097,320.089417 1048.446167,318.887665 1048.550049,315.601410 
	C1048.755127,309.116119 1048.745728,302.614288 1048.493652,296.132233 
	C1048.441162,294.784363 1047.052002,292.448761 1046.102295,292.354858 
	C1041.897217,291.939209 1037.627563,292.174927 1033.442627,292.174927 
	C1033.442627,306.261230 1033.442627,319.507385 1033.442627,333.214813 
	C1043.051514,333.214813 1052.342529,333.314911 1061.622925,333.048370 
	C1062.480347,333.023743 1063.270630,330.665863 1064.092896,328.428650 
M939.975342,321.482422 
	C939.975342,311.778259 939.975342,302.074127 939.975342,292.486206 
	C934.479736,292.486206 929.899048,292.486206 925.220276,292.486206 
	C925.220276,306.160675 925.220276,319.501984 925.220276,332.807312 
	C930.294678,332.807312 934.986023,332.807312 939.975281,332.807312 
	C939.975281,329.082336 939.975281,325.779175 939.975342,321.482422 
M1093.525879,287.006866 
	C1097.080933,284.833252 1098.742676,281.692291 1098.571411,276.873840 
	C1091.295166,277.831390 1084.210205,277.827637 1077.116943,276.998322 
	C1077.211792,286.349731 1083.609253,290.204956 1093.525879,287.006866 
z"/>
<path fill="#3BB7FF" opacity="1.000000" stroke="none" 
	d="
M416.106079,226.761703 
	C410.315704,207.659576 404.649902,188.921173 398.603912,168.925446 
	C392.782745,187.004379 387.424103,203.784775 381.953339,220.528534 
	C380.769104,224.152969 379.467590,227.794067 377.716644,231.166077 
	C374.743988,236.890793 369.656128,239.446793 363.300385,239.153870 
	C357.089264,238.867615 352.177521,235.802994 350.122192,230.021515 
	C346.283386,219.223312 343.050751,208.205109 339.722687,197.230911 
	C334.075897,178.610962 328.536072,159.958511 322.983643,141.310120 
	C321.318329,135.716980 322.242401,134.427704 328.129761,134.391129 
	C343.433594,134.296051 340.704712,133.681671 344.396606,146.135696 
	C350.352539,166.226868 356.137848,186.368591 362.008179,206.485184 
	C362.507874,208.197479 363.104553,209.881470 364.035248,212.744781 
	C364.977661,210.279037 365.592407,208.888275 366.047607,207.447098 
	C373.011475,185.399063 380.118073,163.393677 386.783630,141.255585 
	C388.385406,135.935623 391.074097,134.164246 396.414551,134.283188 
	C410.144531,134.588974 408.154541,133.215820 412.011597,146.366440 
	C418.143372,167.272842 424.163269,188.212067 430.250519,209.131577 
	C430.517975,210.050751 430.984772,210.911911 431.764557,212.763916 
	C432.678741,210.083618 433.339661,208.264343 433.922119,206.420273 
	C440.886261,184.372559 447.947113,162.354263 454.704651,140.243317 
	C456.090485,135.708817 458.544434,134.304169 463.024933,134.301193 
	C478.729187,134.290741 477.264526,134.450806 473.009552,147.608383 
	C464.974365,172.455307 457.003174,197.322937 448.966797,222.169479 
	C448.150116,224.694489 447.172424,227.179901 446.092377,229.604813 
	C443.315094,235.840408 438.496002,239.207840 431.620972,239.172577 
	C424.723053,239.137192 420.072052,235.542679 417.219543,229.417603 
	C416.868408,228.663574 416.559265,227.889954 416.106079,226.761703 
z"/>
<path fill="#044DAE" opacity="1.000000" stroke="none" 
	d="
M199.749756,248.841309 
	C163.978592,284.526947 119.827263,304.414703 71.677505,316.751282 
	C69.959091,317.191559 68.179382,317.392639 66.428238,317.705200 
	C66.283852,317.238068 66.139465,316.770935 65.995079,316.303802 
	C72.062622,313.145142 78.207123,310.124939 84.184364,306.803741 
	C109.991356,292.464325 133.702057,275.432709 152.725189,252.535324 
	C168.297897,233.791107 178.441483,212.606964 181.478683,188.204941 
	C182.695068,178.432144 184.599472,168.828613 190.074554,160.277451 
	C200.543167,143.927124 218.565964,148.973343 227.683594,159.629318 
	C228.431122,160.502960 229.080276,161.460785 229.920593,163.050018 
	C231.318954,165.465500 232.571869,167.210434 233.855682,169.355499 
	C234.243744,171.021423 234.600937,172.287231 234.950684,173.591187 
	C234.943237,173.629318 234.941513,173.641541 234.941513,173.641541 
	C236.399048,190.318405 230.447464,204.987488 222.220032,219.654907 
	C214.469681,229.723221 207.109711,239.282257 199.749756,248.841309 
z"/>
<path fill="#074FAF" opacity="1.000000" stroke="none" 
	d="
M852.621338,148.090515 
	C852.620850,172.558304 852.643494,196.540344 852.612366,220.522293 
	C852.590637,237.323639 850.377014,239.254883 833.713318,239.443741 
	C826.963989,239.520218 822.893555,236.733810 819.745728,231.074677 
	C807.615662,209.267349 795.280090,187.574249 783.011902,165.843765 
	C781.980408,164.016647 780.880554,162.228119 778.860535,160.547180 
	C778.860535,162.100571 778.860535,163.653961 778.860535,165.207352 
	C778.860474,187.523941 778.870239,209.840515 778.854309,232.157104 
	C778.849548,238.850006 778.363953,239.386749 771.818298,239.315430 
	C760.971680,239.197266 760.349792,241.540207 760.400757,227.992828 
	C760.492249,203.678085 760.436096,179.362747 760.425415,155.047668 
	C760.416260,134.138092 766.082031,136.214279 779.249084,135.994049 
	C786.266357,135.876678 790.335571,138.720322 793.557373,144.544983 
	C805.637939,166.384781 817.945496,188.099030 830.178223,209.854599 
	C831.136597,211.559067 832.173828,213.219193 834.276062,214.843201 
	C834.276062,213.170944 834.276123,211.498688 834.276123,209.826431 
	C834.276245,188.009476 834.271790,166.192505 834.278870,144.375549 
	C834.281433,136.452606 834.585754,136.153625 842.305054,136.150238 
	C852.619812,136.145721 852.619812,136.145721 852.621338,148.090515 
z"/>
<path fill="#044DAE" opacity="1.000000" stroke="none" 
	d="
M1106.199463,228.715775 
	C1104.122192,221.244965 1100.841797,214.117844 1100.654297,206.910278 
	C1100.231812,190.667175 1100.344360,174.273865 1102.130981,158.151321 
	C1103.645996,144.480270 1111.507812,137.539932 1125.036377,136.627792 
	C1139.111938,135.678741 1153.360596,135.602875 1167.424683,136.632187 
	C1182.542480,137.738617 1190.267944,145.688873 1191.401001,162.842728 
	C1192.568970,180.526001 1192.224243,198.445450 1190.804810,216.122101 
	C1189.575928,231.426010 1179.975464,238.891266 1164.516602,239.167068 
	C1152.038696,239.389694 1139.548462,239.407898 1127.072876,239.121399 
	C1118.788330,238.931168 1111.352783,236.351120 1106.199463,228.715775 
M1134.592896,154.795425 
	C1123.239868,154.935287 1119.662964,156.852829 1119.332642,165.361969 
	C1118.752075,180.311951 1118.856934,195.310120 1119.306885,210.269104 
	C1119.520020,217.355270 1122.702393,220.207581 1129.751831,220.428268 
	C1140.884521,220.776779 1152.044800,220.753891 1163.177734,220.396255 
	C1169.803833,220.183395 1172.807983,217.534576 1172.997070,210.827637 
	C1173.432007,195.392975 1173.426880,179.927597 1172.957397,164.494247 
	C1172.753052,157.785355 1169.364502,155.169403 1162.524780,154.971970 
	C1153.545166,154.712753 1144.554565,154.835785 1134.592896,154.795425 
z"/>
<path fill="#054EAF" opacity="1.000000" stroke="none" 
	d="
M662.964478,226.094604 
	C658.512817,218.247498 654.052246,210.819519 649.994202,203.177795 
	C647.508484,198.497070 643.953369,196.348083 638.761841,196.467789 
	C634.780029,196.559586 630.794373,196.486053 626.081665,196.486053 
	C626.081665,198.580765 626.081726,200.340363 626.081604,202.099960 
	C626.081238,212.598221 626.003662,223.097321 626.120605,233.594284 
	C626.163940,237.480179 624.948364,239.468903 620.676697,239.371918 
	C606.749573,239.055725 607.414734,241.433044 607.427795,226.299103 
	C607.451477,198.970322 607.428955,171.641510 607.438721,144.312714 
	C607.441528,136.499466 607.802490,136.162033 615.561951,136.154694 
	C626.108398,136.144730 626.177124,134.885071 626.096008,146.767761 
	C626.026794,156.910217 626.081665,167.053528 626.081665,178.146805 
	C631.807800,177.852615 637.318298,178.147202 642.533020,177.044006 
	C644.934875,176.535858 647.315735,173.624481 648.745605,171.229370 
	C654.632812,161.368378 660.348572,151.391403 665.707336,141.235443 
	C667.811951,137.246552 670.387878,135.527573 674.779175,136.115997 
	C676.579834,136.357315 678.439880,136.152908 680.272888,136.156296 
	C687.364868,136.169342 688.310547,137.799820 684.695435,144.167221 
	C676.725830,158.204086 668.684509,172.200287 660.931946,185.759232 
	C669.846741,201.004150 678.751160,216.163849 687.582214,231.366180 
	C691.187927,237.573212 690.166077,239.419815 683.114441,239.300430 
	C667.678894,239.039124 672.214478,241.684921 664.382629,228.580185 
	C663.955811,227.865936 663.544189,227.142624 662.964478,226.094604 
z"/>
<path fill="#054EAF" opacity="1.000000" stroke="none" 
	d="
M228.914337,249.380280 
	C221.200882,249.252274 213.487427,249.124283 205.126343,248.697708 
	C205.607162,246.826401 206.736649,245.254425 207.863953,243.680878 
	C213.424393,235.919373 218.984222,228.157440 224.544250,220.395660 
	C241.610947,220.172348 258.454742,221.634125 274.411591,228.209702 
	C289.787476,234.545868 294.283691,245.778549 288.001953,261.267548 
	C282.477905,274.888336 273.683167,286.430939 263.895721,297.093170 
	C253.000305,308.962341 241.361191,320.150360 229.983429,331.572723 
	C228.822525,332.738220 227.234146,333.477936 225.690872,334.518585 
	C234.883392,318.659180 244.116821,303.385101 252.631180,287.720184 
	C256.084442,281.366791 258.482056,274.304626 260.436340,267.307068 
	C262.672455,259.300354 260.622162,255.851639 253.158051,252.873611 
	C252.043274,252.528214 251.481049,252.436172 250.918823,252.344131 
	C250.496490,252.235504 250.074173,252.126862 249.126862,251.806717 
	C248.038177,251.529510 247.474472,251.463837 246.910767,251.398163 
	C246.183105,251.276520 245.455444,251.154861 244.110840,250.833282 
	C242.630997,250.566544 241.768082,250.499771 240.905182,250.432983 
	C239.540787,250.291885 238.176392,250.150787 236.082153,249.813660 
	C233.206329,249.538513 231.060333,249.459396 228.914337,249.380280 
z"/>
<path fill="#044DAE" opacity="1.000000" stroke="none" 
	d="
M901.734253,238.511597 
	C890.271545,236.798996 883.040283,230.300308 881.303711,219.634338 
	C879.578918,209.040634 879.489075,198.136551 879.294006,187.357498 
	C879.202942,182.328934 884.094727,178.199722 889.404114,178.157761 
	C910.400696,177.991791 931.398987,178.045242 952.396301,177.955261 
	C955.519165,177.941895 957.067810,179.265015 957.070923,182.384262 
	C957.071289,182.717484 957.087463,183.050705 957.086426,183.383911 
	C957.039124,198.224808 958.411926,196.392090 944.503723,196.442017 
	C929.180298,196.497025 913.856506,196.454559 898.010254,196.454559 
	C898.010254,200.643646 897.641418,204.614410 898.105591,208.485306 
	C898.658875,213.100510 901.493103,216.189575 906.369934,216.340775 
	C916.521423,216.655548 926.680847,216.731247 936.837585,216.853561 
	C942.002991,216.915771 947.174133,216.997055 952.334412,216.823608 
	C956.166199,216.694794 957.899719,218.338913 957.866333,222.100510 
	C957.830872,226.099762 957.886658,230.099869 957.847595,234.099075 
	C957.820251,236.899506 956.901733,239.144913 953.623108,239.119476 
	C936.468018,238.986465 919.313477,238.789597 901.734253,238.511597 
z"/>
<path fill="#3BB7FF" opacity="1.000000" stroke="none" 
	d="
M517.840149,236.406189 
	C507.016663,231.376511 504.099365,221.873398 503.181335,211.653580 
	C502.469940,203.733749 502.747223,195.707779 502.891876,187.734558 
	C502.987213,182.478500 507.184387,178.190063 512.522156,178.143219 
	C533.674072,177.957657 554.828186,178.006638 575.981445,177.990631 
	C576.799622,177.990021 577.887024,177.919113 578.393921,178.380707 
	C582.845154,182.434052 580.422791,187.738068 580.595032,192.488953 
	C580.717468,195.863800 577.777344,196.623444 574.883728,196.634476 
	C568.054749,196.660522 561.225647,196.650681 554.396606,196.652023 
	C545.235657,196.653839 536.061829,196.943375 526.918945,196.536621 
	C521.930908,196.314697 520.323608,198.097473 521.006287,202.740860 
	C521.294739,204.702484 521.273865,206.716003 521.645630,208.657700 
	C522.535095,213.303909 525.281616,216.160034 530.149658,216.260941 
	C543.624390,216.540298 557.101624,216.738724 570.578796,216.857101 
	C581.163635,216.950089 581.162048,216.875961 581.165283,227.391037 
	C581.169373,240.571533 582.090027,239.129028 569.308838,239.156693 
	C557.149841,239.182999 544.983582,239.394745 532.835266,239.031387 
	C527.934082,238.884827 523.072083,237.426636 517.840149,236.406189 
z"/>
<path fill="#044DAE" opacity="1.000000" stroke="none" 
	d="
M1038.195190,172.003967 
	C1038.195190,192.498077 1038.207642,212.493195 1038.187866,232.488297 
	C1038.181519,238.921906 1037.845215,239.242386 1031.353638,239.231934 
	C1018.956604,239.212006 1019.828796,240.563324 1019.834473,227.646637 
	C1019.844238,205.318756 1019.837097,182.990891 1019.837097,160.663010 
	C1019.837097,158.881088 1019.837158,157.099182 1019.837158,154.800629 
	C1009.797485,154.800629 1000.340881,154.817291 990.884460,154.794754 
	C984.654968,154.779907 984.034241,154.136185 983.994324,147.923553 
	C983.910095,134.818954 983.451294,136.158737 995.409485,136.159225 
	C1019.403625,136.160202 1043.397705,136.153702 1067.391846,136.164154 
	C1073.434937,136.166794 1073.990601,136.703995 1074.008057,142.701599 
	C1074.045898,155.755142 1075.065674,154.835876 1061.856934,154.804688 
	C1054.212524,154.786621 1046.568115,154.801407 1038.195190,154.801407 
	C1038.195190,160.626358 1038.195190,166.065659 1038.195190,172.003967 
z"/>
<path fill="#3BB7FF" opacity="1.000000" stroke="none" 
	d="
M616.676758,327.398224 
	C615.369629,324.931305 614.241211,322.796417 613.112793,320.661530 
	C612.793152,320.747498 612.473572,320.833466 612.153931,320.919403 
	C612.153931,324.793976 612.153931,328.668549 612.153931,332.879150 
	C606.970703,332.879150 602.265015,332.879150 597.274963,332.879150 
	C597.274963,319.455688 597.274963,306.195251 597.274963,292.673828 
	C605.461365,292.673828 613.869324,291.562469 621.841309,292.952209 
	C632.045288,294.731018 636.031616,305.817017 630.087524,314.393707 
	C627.819519,317.666077 628.471863,319.562744 630.314880,322.201843 
	C632.396851,325.183289 634.234253,328.335480 636.730347,332.287933 
	C639.609131,322.628601 642.299438,313.841492 644.842529,305.011932 
	C648.542175,292.166595 648.506775,292.449707 661.575195,292.011414 
	C666.891724,291.833130 669.065735,293.414001 670.357788,298.599609 
	C673.200684,310.009033 676.821777,321.224609 680.247131,332.936340 
	C674.452820,332.936340 669.194092,332.936340 663.618286,332.936340 
	C662.811340,329.884796 662.295471,326.029694 657.602661,327.348938 
	C656.299011,327.715424 654.440125,328.987915 654.294373,330.045685 
	C653.876953,333.075653 652.173035,333.286285 649.775085,333.263458 
	C641.785645,333.187256 633.778137,332.921967 625.811340,333.353699 
	C621.108521,333.608582 618.228882,332.182190 616.676758,327.398224 
M615.134827,303.225220 
	C609.488892,303.151672 612.934082,306.707153 612.398438,309.131653 
	C616.859985,308.782471 618.513367,307.388336 615.134827,303.225220 
z"/>
<path fill="#3BB7FE" opacity="1.000000" stroke="none" 
	d="
M818.067993,320.198364 
	C818.068054,317.817230 818.068054,315.901276 818.068054,313.985352 
	C817.790527,313.937622 817.513062,313.889893 817.235535,313.842163 
	C815.617371,318.998688 813.832153,324.110901 812.446777,329.329224 
	C811.677490,332.226807 810.394836,333.332336 807.279907,333.317627 
	C798.902588,333.278046 798.905945,333.437042 796.466736,325.513733 
	C795.264954,321.609955 794.044861,317.711731 791.997314,313.934052 
	C791.997314,320.125671 791.997314,326.317322 791.997314,332.864868 
	C786.873047,332.864868 782.170532,332.864868 777.155090,332.864868 
	C777.155090,319.448914 777.155090,306.195160 777.155090,292.191193 
	C783.591858,292.191193 790.025757,292.040649 796.437744,292.346832 
	C797.447388,292.395050 798.783081,294.365143 799.240662,295.696564 
	C801.158630,301.277863 802.799866,306.954254 805.493591,312.623169 
	C807.233093,307.011505 809.128113,301.441498 810.644958,295.770264 
	C811.379883,293.022491 812.634033,291.995056 815.494446,292.097473 
	C821.122498,292.298889 826.762756,292.156769 832.802490,292.156769 
	C832.802490,305.911682 832.802490,319.264771 832.802490,332.928101 
	C828.058594,332.928101 823.463684,332.928101 818.067993,332.928101 
	C818.067993,328.842438 818.067993,324.752991 818.067993,320.198364 
z"/>
<path fill="#014BAD" opacity="1.000000" stroke="none" 
	d="
M715.828003,218.999176 
	C715.828369,193.349289 715.817871,168.199234 715.836731,143.049210 
	C715.841553,136.665375 716.352173,136.157593 722.610718,136.175537 
	C734.547119,136.209747 734.203918,134.584122 734.184570,147.764893 
	C734.143311,175.912888 734.178772,204.060989 734.166870,232.209045 
	C734.164001,239.019424 733.903870,239.287292 727.138245,239.264297 
	C715.182739,239.223679 715.786316,240.712769 715.826721,227.993423 
	C715.835754,225.161987 715.828064,222.330490 715.828003,218.999176 
z"/>
<path fill="#084FAF" opacity="1.000000" stroke="none" 
	d="
M182.848175,170.153580 
	C182.279633,175.322250 180.081528,177.589615 174.840744,177.694031 
	C169.740311,177.795639 164.668274,179.247253 159.580795,180.088089 
	C145.187973,182.466827 134.284027,190.127640 127.005058,202.574646 
	C122.147522,210.881012 118.092796,219.657181 113.690125,228.228928 
	C112.993721,229.584778 112.357414,230.971466 111.031242,233.712128 
	C110.384972,231.441223 109.913864,230.703476 110.037498,230.084534 
	C112.441719,218.048950 114.858177,206.015182 117.387794,194.005402 
	C121.448875,174.724686 133.221771,163.892029 152.913498,161.825439 
	C164.132019,160.648087 175.348114,159.447525 187.739777,158.132812 
	C185.781387,162.889435 184.365128,166.329285 182.848175,170.153580 
z"/>
<path fill="#3BB7FF" opacity="1.000000" stroke="none" 
	d="
M205.635971,142.814575 
	C193.599670,139.138855 187.532379,130.963745 188.003448,119.531723 
	C188.421341,109.390228 195.667389,100.940948 205.823257,98.857697 
	C214.690933,97.038704 221.934982,99.991051 227.505219,106.880569 
	C233.264023,114.003296 234.181793,122.053177 230.313736,130.263168 
	C226.550430,138.250809 220.049850,142.731476 211.037231,143.096893 
	C209.381485,143.164032 207.715286,142.973831 205.635971,142.814575 
z"/>
<path fill="#064EAF" opacity="1.000000" stroke="none" 
	d="
M879.008911,140.412659 
	C879.270142,136.760956 881.213928,135.916977 884.139648,135.923874 
	C906.928162,135.977600 929.716980,135.994644 952.505371,135.912247 
	C956.086060,135.899307 957.815796,137.404068 957.846008,140.874084 
	C957.981445,156.452591 958.767822,154.656662 945.349487,154.630936 
	C925.721375,154.593307 906.093323,154.534348 886.465210,154.474899 
	C879.117310,154.452637 878.998291,154.319672 878.990601,146.854309 
	C878.988586,144.858154 878.992554,142.862015 879.008911,140.412659 
z"/>
<path fill="#3DB8FF" opacity="1.000000" stroke="none" 
	d="
M557.999939,135.943237 
	C564.485657,135.945740 570.472534,136.014847 576.456848,135.923477 
	C579.572449,135.875931 581.127625,137.208359 581.137024,140.326355 
	C581.138062,140.658737 581.162476,140.991089 581.162048,141.323441 
	C581.145386,156.109802 582.463928,154.796051 568.377319,154.773361 
	C548.757202,154.741730 529.137085,154.716064 509.516998,154.665924 
	C503.178741,154.649734 502.373138,153.814117 502.305084,147.475082 
	C502.181274,135.943390 502.181244,135.943314 513.604065,135.943283 
	C528.236023,135.943222 542.868042,135.943283 557.999939,135.943237 
z"/>
<path fill="#0950B0" opacity="1.000000" stroke="none" 
	d="
M233.824783,168.955383 
	C232.571869,167.210434 231.318954,165.465500 230.028900,163.372345 
	C230.649597,162.608292 231.307434,162.192474 231.965271,161.776642 
	C231.148972,160.617294 230.332672,159.457932 229.284424,157.969147 
	C268.369537,149.671310 290.218170,124.105896 301.105133,87.143150 
	C304.151917,95.654839 294.939850,127.251228 284.204010,142.793381 
	C272.576294,159.626770 257.253174,171.465363 238.597626,179.276810 
	C237.659988,177.262802 236.804016,175.424164 235.444778,173.613541 
	C234.941513,173.641541 234.943237,173.629318 235.425598,173.572266 
	C235.505661,171.861832 237.657227,169.041687 233.824783,168.955383 
z"/>
<path fill="#3EB8FF" opacity="1.000000" stroke="none" 
	d="
M880.667114,333.455841 
	C879.528992,332.616669 878.231323,331.867065 878.223816,331.104767 
	C878.098572,318.332275 878.134460,305.558167 878.134460,291.549561 
	C887.498169,292.079102 896.542175,291.629181 905.160950,293.331726 
	C914.988708,295.273102 919.668213,303.902954 918.962402,315.212555 
	C918.390869,324.370239 912.299133,331.744354 902.976013,332.943146 
	C895.780090,333.868408 888.404053,333.392487 880.667114,333.455841 
M901.099487,318.540253 
	C904.430237,311.466217 902.492004,305.276215 896.626709,304.718781 
	C895.579834,304.619293 893.480591,305.802795 893.439392,306.488373 
	C893.155945,311.206787 893.290466,315.950348 893.290466,321.796875 
	C896.426819,320.649536 898.501099,319.890717 901.099487,318.540253 
z"/>
<path fill="#3EB8FF" opacity="1.000000" stroke="none" 
	d="
M714.182129,333.541260 
	C708.844421,334.487061 705.934814,332.402313 704.287964,327.808319 
	C703.482788,325.562439 702.016479,323.553589 699.909790,321.680237 
	C699.909790,325.380066 699.909790,329.079895 699.909790,333.488983 
	C695.138916,333.488983 690.862732,333.593994 686.600952,333.393494 
	C685.820435,333.356812 684.452515,332.083954 684.445251,331.370605 
	C684.313721,318.446411 684.349365,305.520477 684.349365,292.214203 
	C692.567261,292.214203 700.254089,291.531036 707.769470,292.375183 
	C718.892151,293.624512 723.854187,305.878326 717.233215,315.067932 
	C715.471497,317.513184 715.772949,319.032074 717.203979,321.188446 
	C719.659851,324.889130 721.908020,328.727631 724.881714,333.541687 
	C720.799805,333.541687 717.717957,333.541687 714.182129,333.541260 
M703.552185,303.680481 
	C696.703979,302.337402 700.724121,306.837097 700.042847,309.392090 
	C703.671143,308.842163 706.049927,308.090881 703.552185,303.680481 
z"/>
<path fill="#3DB8FF" opacity="1.000000" stroke="none" 
	d="
M349.112244,326.886597 
	C349.112305,315.261841 349.112305,304.121735 349.112305,292.817932 
	C357.764008,292.817932 366.378937,291.534973 374.425659,293.125946 
	C385.803925,295.375610 388.145782,307.130707 380.025330,317.907593 
	C382.944641,322.671661 385.940399,327.560486 389.406616,333.217010 
	C383.540619,333.217010 378.594666,333.377106 373.674072,333.094940 
	C372.561340,333.031097 371.221832,331.622070 370.533234,330.497528 
	C368.754547,327.592865 367.281189,324.501221 364.613647,321.708435 
	C364.613647,325.389893 364.613647,329.071381 364.613647,332.969421 
	C359.227386,332.969421 354.479156,332.969421 349.112213,332.969421 
	C349.112213,330.928558 349.112213,329.149902 349.112244,326.886597 
M364.234589,306.249817 
	C364.936768,307.275116 365.638916,308.300415 366.341064,309.325714 
	C367.419800,308.280457 368.861206,307.392639 369.414001,306.119080 
	C369.665070,305.540588 368.155853,304.198120 367.445129,303.202209 
	C366.377136,303.966095 365.309174,304.729980 364.234589,306.249817 
z"/>
<path fill="#3EB8FE" opacity="1.000000" stroke="none" 
	d="
M470.988312,306.988342 
	C470.988312,301.881683 470.988312,297.271057 470.988312,292.411865 
	C476.145355,292.411865 480.729828,292.411865 486.109314,292.411865 
	C486.109314,298.086914 486.083862,303.668152 486.122925,309.248932 
	C486.136871,311.237640 485.708374,313.553162 486.568695,315.124481 
	C487.496429,316.818909 489.619232,318.655457 491.370636,318.818390 
	C492.510010,318.924377 494.892822,316.235077 495.028687,314.652985 
	C495.511139,309.034973 495.270355,303.354645 495.298950,297.697937 
	C495.307190,296.067352 495.300201,294.436707 495.300201,292.484680 
	C500.536865,292.484680 505.272766,292.484680 511.366699,292.484680 
	C510.732758,302.218323 511.066223,312.077789 509.196045,321.499847 
	C507.410980,330.492981 497.659637,335.211914 487.438629,333.953674 
	C478.598328,332.865448 471.759033,325.612518 471.107727,316.466400 
	C470.895386,313.484680 471.018555,310.479065 470.988312,306.988342 
z"/>
<path fill="#40B8FD" opacity="1.000000" stroke="none" 
	d="
M860.978271,333.552307 
	C853.868835,333.551910 847.254517,333.551910 840.386597,333.551910 
	C840.386597,319.493347 840.386597,306.115784 840.386597,292.439575 
	C850.881104,292.439575 861.092285,292.439575 871.600525,292.439575 
	C871.600525,296.290283 871.600525,299.879395 871.600525,304.421875 
	C866.438782,304.421875 861.301636,304.421875 856.164490,304.421875 
	C856.130249,305.142395 856.096008,305.862915 856.061768,306.583435 
	C860.731323,306.788818 865.400879,306.994171 869.907288,307.192352 
	C870.233032,307.703918 870.536926,307.966217 870.563721,308.254333 
	C871.545288,318.811554 871.541626,318.800629 861.368896,318.860382 
	C859.638306,318.870544 857.908508,319.023834 856.178284,319.110992 
	C856.164062,319.629272 856.149841,320.147522 856.135559,320.665771 
	C861.463623,320.665771 866.791687,320.665771 872.548340,320.665771 
	C872.548340,325.279816 872.548340,328.999481 872.548340,333.552734 
	C868.959839,333.552734 865.216614,333.552734 860.978271,333.552307 
z"/>
<path fill="#40B8FD" opacity="1.000000" stroke="none" 
	d="
M559.102905,321.964722 
	C559.102966,311.994415 559.102966,302.518829 559.102966,292.593018 
	C569.565491,292.593018 579.775391,292.593018 590.869446,292.593018 
	C590.869446,295.628723 591.133545,298.899323 590.705994,302.076782 
	C590.580261,303.011261 588.537659,304.274933 587.299500,304.364563 
	C583.273376,304.655914 579.213013,304.473572 575.165833,304.473572 
	C575.128357,305.165527 575.090942,305.857483 575.053528,306.549469 
	C579.744141,306.782288 584.434753,307.015106 589.088074,307.246063 
	C589.351562,307.906616 589.662903,308.348358 589.691223,308.807587 
	C590.309448,318.806885 590.303284,318.794250 580.299500,318.862122 
	C578.587280,318.873718 576.876099,319.050140 575.164429,319.150421 
	C575.146301,319.674530 575.128235,320.198608 575.110168,320.722717 
	C580.469788,320.722717 585.829346,320.722717 591.574951,320.722717 
	C591.574951,325.332581 591.574951,329.059540 591.574951,333.173035 
	C580.974304,333.173035 570.284668,333.173035 559.102905,333.173035 
	C559.102905,329.376434 559.102905,325.917969 559.102905,321.964722 
z"/>
<path fill="#3EB7FD" opacity="1.000000" stroke="none" 
	d="
M740.013550,333.543640 
	C735.551331,333.543243 731.586121,333.543243 727.309937,333.543243 
	C727.309937,319.700470 727.309937,306.311493 727.309937,292.533112 
	C737.495789,292.533112 747.709167,292.533112 758.698303,292.533112 
	C758.698303,295.263123 758.567566,298.030731 758.734192,300.780304 
	C758.908630,303.658264 757.653259,304.596405 754.912354,304.504822 
	C750.752502,304.365845 746.584595,304.468445 742.420105,304.468445 
	C742.403625,305.158081 742.387085,305.847717 742.370544,306.537354 
	C747.090881,306.537354 751.811218,306.537354 756.861633,306.537354 
	C756.861633,311.025360 756.861633,314.579742 756.861633,319.050659 
	C751.963196,319.050659 747.193787,319.050659 742.424438,319.050659 
	C742.414917,319.642700 742.405334,320.234711 742.395813,320.826752 
	C747.960938,320.826752 753.526062,320.826752 759.450378,320.826752 
	C759.450378,325.392731 759.450378,329.102325 759.450378,333.544037 
	C753.057129,333.544037 746.783875,333.544037 740.013550,333.543640 
z"/>
<path fill="#3CB7FE" opacity="1.000000" stroke="none" 
	d="
M1104.802856,333.237488 
	C1102.001343,333.237854 1099.668457,333.169189 1097.341187,333.255341 
	C1094.543335,333.358887 1091.970703,333.512115 1091.722900,329.508270 
	C1091.679199,328.803528 1089.503662,327.683960 1088.349854,327.728058 
	C1086.778809,327.788025 1085.052612,328.523956 1083.765625,329.474579 
	C1083.013184,330.030273 1082.986572,331.568512 1082.547974,332.929596 
	C1077.174316,332.929596 1071.785767,332.929596 1065.910278,332.929596 
	C1069.696533,319.938202 1073.297363,307.339203 1077.139526,294.814240 
	C1077.486206,293.683990 1079.354858,292.337616 1080.576172,292.276306 
	C1086.042725,292.001953 1091.531006,292.156982 1097.554932,292.156982 
	C1101.488403,305.564026 1105.393188,318.873138 1109.442627,332.675720 
	C1107.719116,332.907806 1106.496460,333.072418 1104.802856,333.237488 
z"/>
<path fill="#3CB7FE" opacity="1.000000" stroke="none" 
	d="
M991.893921,310.820221 
	C993.372131,305.647919 994.927490,300.908752 996.092712,296.075470 
	C996.857056,292.905334 998.446594,291.859375 1001.661621,292.086304 
	C1006.618652,292.436249 1012.908569,290.551056 1016.212402,292.949097 
	C1019.458740,295.305450 1019.785522,301.790985 1021.216614,306.518097 
	C1023.764404,314.934021 1026.182861,323.389191 1028.630127,331.835266 
	C1028.707275,332.101532 1028.504395,332.448944 1028.322876,333.224426 
	C1023.807068,333.224426 1019.122009,333.652313 1014.590942,333.003967 
	C1012.889832,332.760498 1011.546509,330.017029 1009.232849,327.554016 
	C1007.306519,327.485229 1003.210022,325.321472 1002.615417,331.444885 
	C1002.550476,332.113647 1000.997986,333.113220 1000.105103,333.146606 
	C995.494629,333.319031 990.874207,333.226685 985.308289,333.226685 
	C987.619324,325.396484 989.712341,318.304932 991.893921,310.820221 
z"/>
<path fill="#3DB7FD" opacity="1.000000" stroke="none" 
	d="
M418.789856,306.972229 
	C420.188324,307.986389 421.741974,308.900848 421.915527,310.027832 
	C422.314575,312.619293 422.041962,315.314209 422.041962,318.840271 
	C416.954559,318.840271 412.139191,318.840271 407.323822,318.840271 
	C407.260559,319.333191 407.197327,319.826141 407.134094,320.319061 
	C408.021271,320.626740 408.896545,321.150330 409.797943,321.199951 
	C412.122894,321.328003 414.459381,321.248138 416.791260,321.248383 
	C424.500641,321.249237 426.528259,323.858154 424.469482,331.406189 
	C424.241577,332.241760 423.027527,333.396423 422.257355,333.406860 
	C412.300354,333.541931 402.340973,333.496277 392.116150,333.496277 
	C392.116150,319.580872 392.116150,306.178253 392.116150,292.462524 
	C402.423035,292.462524 412.481049,292.462524 422.849426,292.462524 
	C422.849426,296.265472 422.849426,299.839478 422.849426,304.463409 
	C417.504547,304.463409 412.272125,304.463409 407.039734,304.463409 
	C407.035065,305.298645 407.030426,306.133850 407.025787,306.969086 
	C410.789917,306.969086 414.554047,306.969086 418.789856,306.972229 
z"/>
<path fill="#3BB7FF" opacity="1.000000" stroke="none" 
	d="
M517.844971,312.000183 
	C517.844849,305.226044 517.844849,298.951813 517.844849,292.266144 
	C526.169128,292.266144 533.990723,291.667175 541.676880,292.430634 
	C549.737915,293.231415 554.510254,299.784790 553.898987,307.386414 
	C553.284973,315.020508 547.661255,320.006653 539.403625,320.206238 
	C537.454895,320.253357 535.503967,320.213196 533.087585,320.213196 
	C533.087585,324.613678 533.087585,328.536346 533.087585,332.841064 
	C527.923584,332.841064 523.225647,332.841064 517.845032,332.841064 
	C517.845032,326.019440 517.845032,319.259766 517.844971,312.000183 
M538.130493,307.673981 
	C539.197388,303.292786 536.921387,302.737671 533.260925,303.323212 
	C533.260925,305.417175 533.260925,307.261719 533.260925,309.652832 
	C535.039124,309.100159 536.372437,308.685760 538.130493,307.673981 
z"/>
<path fill="#3EB8FF" opacity="1.000000" stroke="none" 
	d="
M967.147766,291.284424 
	C975.663330,292.088287 978.613281,293.281616 983.724304,298.029724 
	C981.612366,301.398621 979.440002,304.863800 977.158020,308.503906 
	C972.296814,306.858429 967.216736,303.306305 963.619751,309.155701 
	C962.459778,311.041992 962.544861,315.112549 963.847412,316.822906 
	C967.453064,321.557465 972.139893,319.074249 976.807434,316.947388 
	C978.016968,318.738678 979.240540,320.472412 980.383606,322.257690 
	C984.247620,328.292450 983.833984,329.532532 977.109802,332.299438 
	C966.487427,336.670380 954.441895,333.122742 948.968323,324.010925 
	C943.475647,314.867432 945.089905,302.832733 953.555603,296.582733 
	C957.238831,293.863525 962.296875,293.006531 967.147766,291.284424 
z"/>
<path fill="#3EB8FF" opacity="1.000000" stroke="none" 
	d="
M461.610260,305.830719 
	C460.273193,308.648193 458.733185,308.218262 456.549805,307.330292 
	C454.501129,306.497131 451.908905,305.872803 449.872162,306.393524 
	C446.551636,307.242554 444.607208,309.936584 445.097595,313.596252 
	C445.577759,317.179260 447.749146,319.484222 451.468109,319.287079 
	C454.045166,319.150452 456.578247,318.183990 459.864380,317.417175 
	C461.492950,319.908722 463.631653,322.817749 465.299408,325.975525 
	C465.741852,326.813232 465.141937,328.864044 464.332123,329.595947 
	C457.794495,335.504150 445.312073,335.617432 437.264435,330.035370 
	C429.687683,324.779938 426.547028,313.959717 430.015259,305.060730 
	C433.547882,295.996643 443.317719,290.124634 452.729614,291.431366 
	C453.715637,291.568268 454.683594,291.836700 455.658997,292.048431 
	C466.033752,294.300537 467.200775,296.846283 461.610260,305.830719 
z"/>
<path fill="#3CB7FE" opacity="1.000000" stroke="none" 
	d="
M1064.092529,328.910004 
	C1063.270630,330.665863 1062.480347,333.023743 1061.622925,333.048370 
	C1052.342529,333.314911 1043.051514,333.214813 1033.442627,333.214813 
	C1033.442627,319.507385 1033.442627,306.261230 1033.442627,292.174927 
	C1037.627563,292.174927 1041.897217,291.939209 1046.102295,292.354858 
	C1047.052002,292.448761 1048.441162,294.784363 1048.493652,296.132233 
	C1048.745728,302.614288 1048.755127,309.116119 1048.550049,315.601410 
	C1048.446167,318.887665 1049.574097,320.089417 1052.847168,319.879944 
	C1056.309692,319.658325 1059.797363,319.830200 1064.092896,319.830200 
	C1064.092896,322.923126 1064.092896,325.675873 1064.092529,328.910004 
z"/>
<path fill="#3BB7FE" opacity="1.000000" stroke="none" 
	d="
M939.975342,321.979248 
	C939.975281,325.779175 939.975281,329.082336 939.975281,332.807312 
	C934.986023,332.807312 930.294678,332.807312 925.220276,332.807312 
	C925.220276,319.501984 925.220276,306.160675 925.220276,292.486206 
	C929.899048,292.486206 934.479736,292.486206 939.975342,292.486206 
	C939.975342,302.074127 939.975342,311.778259 939.975342,321.979248 
z"/>
<path fill="#42B7FA" opacity="1.000000" stroke="none" 
	d="
M1093.210205,287.166748 
	C1083.609253,290.204956 1077.211792,286.349731 1077.116943,276.998322 
	C1084.210205,277.827637 1091.295166,277.831390 1098.571411,276.873840 
	C1098.742676,281.692291 1097.080933,284.833252 1093.210205,287.166748 
z"/>
<path fill="#CAD9EE" opacity="1.000000" stroke="none" 
	d="
M223.992584,220.254913 
	C218.984222,228.157440 213.424393,235.919373 207.863953,243.680878 
	C206.736649,245.254425 205.607162,246.826401 204.650284,248.761734 
	C203.357376,249.064087 201.892883,249.003815 200.089066,248.892426 
	C207.109711,239.282257 214.469681,229.723221 222.084961,219.993256 
	C222.707169,219.919586 223.074036,220.016876 223.992584,220.254913 
z"/>
<path fill="#CAD9EE" opacity="1.000000" stroke="none" 
	d="
M229.038483,249.715347 
	C231.060333,249.459396 233.206329,249.538513 235.669769,249.842239 
	C233.712341,250.061356 231.437485,250.055878 229.038483,249.715347 
z"/>
<path fill="#CAD9EE" opacity="1.000000" stroke="none" 
	d="
M240.983154,250.720001 
	C241.768082,250.499771 242.630997,250.566544 243.740082,250.852753 
	C243.011215,251.050446 242.036179,251.028732 240.983154,250.720001 
z"/>
<path fill="#CAD9EE" opacity="1.000000" stroke="none" 
	d="
M250.965256,252.606857 
	C251.481049,252.436172 252.043274,252.528214 252.795929,252.846207 
	C252.328140,253.004623 251.669922,252.937103 250.965256,252.606857 
z"/>
<path fill="#CAD9EE" opacity="1.000000" stroke="none" 
	d="
M246.961609,251.659668 
	C247.474472,251.463837 248.038177,251.529510 248.797913,251.813522 
	C248.333450,251.994949 247.672958,251.958054 246.961609,251.659668 
z"/>
<path fill="#FEFEFF" opacity="1.000000" stroke="none" 
	d="
M233.855682,169.355499 
	C237.657227,169.041687 235.505661,171.861832 235.433044,173.534119 
	C234.600937,172.287231 234.243744,171.021423 233.855682,169.355499 
z"/>
<path fill="#FCFDFE" opacity="1.000000" stroke="none" 
	d="
M1135.080811,154.794922 
	C1144.554565,154.835785 1153.545166,154.712753 1162.524780,154.971970 
	C1169.364502,155.169403 1172.753052,157.785355 1172.957397,164.494247 
	C1173.426880,179.927597 1173.432007,195.392975 1172.997070,210.827637 
	C1172.807983,217.534576 1169.803833,220.183395 1163.177734,220.396255 
	C1152.044800,220.753891 1140.884521,220.776779 1129.751831,220.428268 
	C1122.702393,220.207581 1119.520020,217.355270 1119.306885,210.269104 
	C1118.856934,195.310120 1118.752075,180.311951 1119.332642,165.361969 
	C1119.662964,156.852829 1123.239868,154.935287 1135.080811,154.794922 
z"/>
<path fill="#EEF8FD" opacity="1.000000" stroke="none" 
	d="
M615.501099,303.398193 
	C618.513367,307.388336 616.859985,308.782471 612.398438,309.131653 
	C612.934082,306.707153 609.488892,303.151672 615.501099,303.398193 
z"/>
<path fill="#EEF8FD" opacity="1.000000" stroke="none" 
	d="
M900.837402,318.836090 
	C898.501099,319.890717 896.426819,320.649536 893.290466,321.796875 
	C893.290466,315.950348 893.155945,311.206787 893.439392,306.488373 
	C893.480591,305.802795 895.579834,304.619293 896.626709,304.718781 
	C902.492004,305.276215 904.430237,311.466217 900.837402,318.836090 
z"/>
<path fill="#EEF8FD" opacity="1.000000" stroke="none" 
	d="
M703.807922,303.968506 
	C706.049927,308.090881 703.671143,308.842163 700.042847,309.392090 
	C700.724121,306.837097 696.703979,302.337402 703.807922,303.968506 
z"/>
<path fill="#EEF8FD" opacity="1.000000" stroke="none" 
	d="
M364.237885,305.871826 
	C365.309174,304.729980 366.377136,303.966095 367.445129,303.202209 
	C368.155853,304.198120 369.665070,305.540588 369.414001,306.119080 
	C368.861206,307.392639 367.419800,308.280457 366.341064,309.325714 
	C365.638916,308.300415 364.936768,307.275116 364.237885,305.871826 
z"/>
<path fill="#EEF8FD" opacity="1.000000" stroke="none" 
	d="
M537.918091,307.972656 
	C536.372437,308.685760 535.039124,309.100159 533.260925,309.652832 
	C533.260925,307.261719 533.260925,305.417175 533.260925,303.323212 
	C536.921387,302.737671 539.197388,303.292786 537.918091,307.972656 
z"/>
</svg>